<svg width="284" height="283" viewBox="0 0 284 283" fill="none" xmlns="http://www.w3.org/2000/svg">
<g opacity="0.5">
<rect x="136.867" y="136.783" width="11.7917" height="11.7917" rx="5.89583" fill="#3896EC"/>
<rect opacity="0.5" x="136.867" y="136.783" width="11.7917" height="11.7917" rx="5.89583" fill="#3896EC"/>
</g>
<rect opacity="0.2" x="47.25" y="47.1667" width="188.667" height="188.667" rx="94.3333" fill="#3896EC"/>
<rect x="75.5499" y="75.4667" width="132.067" height="132.067" rx="66.0333" fill="#23B0FF"/>
<path d="M173.005 115.886L144.049 106.018C143.7 105.899 143.231 105.839 142.763 105.839C142.294 105.839 141.825 105.899 141.476 106.018L112.52 115.886C111.813 116.125 111.234 116.943 111.234 117.693V158.799C111.234 159.549 111.719 160.538 112.307 161.006L141.68 183.895C141.979 184.125 142.362 184.244 142.754 184.244C143.146 184.244 143.538 184.125 143.828 183.895L173.201 161.006C173.789 160.546 174.274 159.558 174.274 158.799V117.693C174.291 116.943 173.712 116.133 173.005 115.886ZM168.156 157.163L142.763 176.95L117.369 157.163V120.726L142.763 112.069L168.156 120.726V157.163Z" fill="white"/>
<path d="M117.369 120.726V157.163L142.763 176.95L168.156 157.163V120.726L142.763 112.068L117.369 120.726ZM153.056 129.358H157.76C158.314 129.358 158.638 129.989 158.314 130.44L140.198 155.382C140.07 155.557 139.904 155.698 139.711 155.796C139.519 155.894 139.306 155.945 139.09 155.945C138.874 155.945 138.661 155.894 138.469 155.796C138.276 155.698 138.109 155.557 137.982 155.382L127.211 140.555C126.887 140.104 127.211 139.473 127.765 139.473H132.469C132.912 139.473 133.321 139.686 133.577 140.035L139.09 147.628L151.949 129.921C152.204 129.571 152.622 129.358 153.056 129.358Z" fill="black" fill-opacity="0.15"/>
<path d="M133.576 140.035C133.321 139.686 132.912 139.473 132.469 139.473H127.765C127.211 139.473 126.887 140.104 127.211 140.555L137.982 155.382C138.109 155.557 138.276 155.699 138.469 155.796C138.661 155.894 138.874 155.945 139.09 155.945C139.306 155.945 139.519 155.894 139.711 155.796C139.903 155.699 140.07 155.557 140.198 155.382L158.314 130.44C158.638 129.989 158.314 129.358 157.76 129.358H153.056C152.622 129.358 152.204 129.571 151.948 129.921L139.09 147.628L133.576 140.035Z" fill="white"/>
</svg>
