<svg width="283" height="283" viewBox="0 0 283 283" fill="none" xmlns="http://www.w3.org/2000/svg">
<rect x="75.4667" y="75.4667" width="132.067" height="132.067" rx="66.0333" fill="#23B0FF"/>
<path d="M172.921 115.886L143.966 106.018C143.617 105.899 143.148 105.839 142.679 105.839C142.21 105.839 141.742 105.899 141.392 106.018L112.437 115.886C111.73 116.125 111.15 116.943 111.15 117.693V158.799C111.15 159.549 111.636 160.538 112.224 161.006L141.597 183.895C141.895 184.125 142.279 184.244 142.671 184.244C143.063 184.244 143.455 184.125 143.744 183.895L173.117 161.006C173.705 160.546 174.191 159.558 174.191 158.799V117.693C174.208 116.943 173.629 116.133 172.921 115.886ZM168.073 157.163L142.679 176.95L117.286 157.163V120.726L142.679 112.069L168.073 120.726V157.163Z" fill="white"/>
<path d="M140.08 127.657C140.032 127.179 140.084 126.696 140.234 126.24C140.385 125.783 140.629 125.363 140.951 125.007C141.273 124.651 141.666 124.366 142.106 124.171C142.545 123.976 143.02 123.876 143.5 123.876C143.98 123.876 144.455 123.976 144.894 124.171C145.334 124.366 145.727 124.651 146.049 125.007C146.371 125.363 146.615 125.783 146.766 126.24C146.916 126.696 146.968 127.179 146.92 127.657L145.587 149.485C145.535 150.002 145.293 150.482 144.907 150.831C144.522 151.181 144.02 151.374 143.5 151.374C142.98 151.374 142.478 151.181 142.093 150.831C141.707 150.482 141.465 150.002 141.413 149.485L140.08 127.657ZM140.062 158.25C140.062 157.339 140.425 156.464 141.069 155.82C141.714 155.175 142.588 154.813 143.5 154.813C144.412 154.813 145.286 155.175 145.931 155.82C146.575 156.464 146.938 157.339 146.938 158.25C146.938 159.162 146.575 160.036 145.931 160.681C145.286 161.326 144.412 161.688 143.5 161.688C142.588 161.688 141.714 161.326 141.069 160.681C140.425 160.036 140.062 159.162 140.062 158.25Z" fill="white"/>
</svg>
